<svg preserveAspectRatio="xMidYMid meet" data-bbox="0 0 4046 4046" xmlns="http://www.w3.org/2000/svg" viewBox="0 0 4046 4046" height="4046" width="4046" data-type="shape" role="presentation" aria-hidden="true" aria-label="">
    <g>
        <g clip-path="url(#55a3c31e-5ded-4dca-ad93-70b15e6b57bc_comp-kbgakxea_r_comp-liu7a4zw)">
            <path d="M0 710C0 317.878 317.878 0 710 0h2626c392.12 0 710 317.878 710 710v2626c0 392.12-317.88 710-710 710H710c-392.122 0-710-317.88-710-710zm1329.6 308.6 1.4-1.1s-15.5 72.5 24.5 124c43.62 41.15 94.01 27.1 128.6 17.45 6.24-1.74 11.96-3.33 17.03-4.44 35.71-24.64 73.95-46.53 114.73-65.67 125.58-61.23 261.87-91.84 408.83-91.84 45.42 0 88.18 3.4 128.25 10.2 24.23 2.57 65.75 12.37 93.7 18.96l.03.01h.02c21.35 5.04 34.78 8.2 26.51 4.84l80.77 26.17 98.66 47.1c30.83 15.69 83.15 44.39 129.49 83.72 43.17 36.63 67.84 62.8 92.5 94.19 45.22 57.57 98.26 139.99 127.65 214.82 32.06 72.56 48.1 151.92 48.1 238.09 0 151.94-38.75 282.33-116.24 391.17-74.82 108.84-175.02 192.75-300.61 251.7-125.59 56.69-261.87 85.04-408.83 85.04-29.65 0-59.01-1.24-88.07-3.73l20.73 4.75c-122.29 6.8-217.4 19.26-285.34 37.38-65.68 18.12-98.51 56.63-98.51 115.52 0 33.98 12.44 62.29 37.36 84.95 27.18 20.38 66.8 30.57 118.9 30.57h353.28c117.75 0 225.33 15.86 322.71 47.57 97.37 33.98 175.5 89.47 234.39 166.49 58.88 79.28 88.32 186.88 88.32 322.79V3412h-271.75v-74.75c0-120.05-31.72-207.26-95.12-261.62-61.14-54.37-154-81.55-278.55-81.55h-339.7c-74.73 0-140.41-6.8-197.02-20.39-54.35-11.32-99.65-29.45-135.88-54.36-36.24-24.91-63.41-55.49-81.53-91.74-18.12-36.24-27.17-77.02-27.17-122.32 0-86.07 26.03-150.63 78.13-193.67 52.08-45.3 116.62-73.62 193.63-84.94 44.07-6.48 87.04-9.25 128.9-8.31 9.72.22 19.37.63 28.96 1.25-2.5-.77-4.99-1.54-7.49-2.33-35.15-11.09-69.81-24.18-104.01-39.3-125.58-58.95-228.46-142.86-308.62-251.7-77.49-108.84-116.24-239.23-116.24-391.17 0-151.92 38.75-282.31 116.24-391.16 3.19-4.57 6.42-9.1 9.69-13.58 10.04-46.64 9-81.74-23.43-138.86-27.99-43.74-92.33-56.48-108.01-58.99-19.03 5.24-39.07 8.04-59.77 8.04-124.11 0-224.72-100.64-224.72-224.777C905 791.634 1005.61 691 1129.72 691s224.72 100.634 224.72 224.773c0 37.055-8.96 72.016-24.84 102.827m695.09 1189.3c88.18 0 169.68-18.14 244.49-54.42 77.5-36.29 140.29-89.57 188.39-159.87 48.09-70.3 72.14-156.46 72.14-258.51 0-102.04-24.05-188.2-72.14-258.5-45.43-72.56-106.88-126.99-184.37-163.27-77.5-38.55-160.33-57.82-248.51-57.82s-171.01 19.27-248.51 57.82c-77.49 36.28-140.29 89.57-188.38 159.86-48.1 70.3-72.15 157.61-72.15 261.91 0 102.05 24.05 188.21 72.15 258.51 48.09 70.3 110.89 123.58 188.38 159.87 77.5 36.28 160.33 54.42 248.51 54.42" clip-rule="evenodd" fill-rule="evenodd"></path>
        </g>
        <defs fill="none">
            <clipPath id="55a3c31e-5ded-4dca-ad93-70b15e6b57bc_comp-kbgakxea_r_comp-liu7a4zw">
                <path fill="#ffffff" d="M4046 0v4046H0V0z"></path>
            </clipPath>
        </defs>
    </g>
</svg>