<svg preserveAspectRatio="xMidYMid meet" data-bbox="0 193.409 12399.801 2864.541" xmlns="http://www.w3.org/2000/svg" viewBox="0 0 12574 3105" height="3105" width="12574" data-type="ugc" role="presentation" aria-hidden="true" aria-label="">
    <g>
        <path fill="#000000" d="M1199.98 679.546h271.75V2378.41h-271.75zm856.03-33.978c90.58 0 172.11 13.591 244.58 40.773s133.61 66.822 183.44 118.921c49.81 52.098 88.32 115.522 115.5 190.272 27.17 72.486 40.76 155.166 40.76 248.036v1134.84h-271.76V1311.52c0-131.38-30.57-229.91-91.72-295.6-61.14-65.688-152.86-98.533-275.15-98.533-92.86 0-178.91 23.784-258.17 71.352-79.27 47.571-144.94 113.251-197.02 197.071-49.83 81.54-80.4 176.68-91.72 285.41l-3.4-197.07c11.32-95.14 33.97-181.21 67.94-258.23q54.345-115.522 132.48-197.068c54.35-56.629 115.5-99.666 183.44-129.113q105.3-44.172 220.8-44.171"></path>
        <path fill="#000000" d="M6111.3 1831.38h254.77c-18.12 110.99-58.89 210.65-122.29 299-61.15 86.07-142.67 155.16-244.58 207.26-99.65 49.83-215.15 74.75-346.49 74.75-158.53 0-301.2-37.38-428.02-112.13-126.83-77.02-227.6-181.21-302.33-312.59-72.48-133.64-108.7-285.41-108.7-455.29 0-169.89 35.1-321.66 105.3-455.3 72.47-133.644 170.98-238.973 295.54-315.989 124.55-77.015 264.96-115.523 421.22-115.523 165.31 0 304.59 37.375 417.83 112.125 115.5 72.485 200.42 180.08 254.77 322.787 56.61 140.43 79.26 313.72 67.94 519.85H5085.41c11.32 111 41.9 208.39 91.72 292.2 49.82 83.82 115.5 149.5 197.03 197.07 81.52 45.3 174.37 67.96 278.55 67.96 115.49 0 212.87-29.45 292.14-88.34 81.52-61.16 137-140.44 166.45-237.84m-465.39-930.982q-210.615 0-353.28 122.322c-95.12 81.54-158.53 192.54-190.23 332.97h995.31c-9.06-149.5-57.75-262.75-146.07-339.77q-129.09-115.522-305.73-115.522"></path>
        <path fill="#000000" d="M6726.67 679.546h271.76V2378.41h-271.76zm856.04-33.978c90.59 0 172.11 13.591 244.58 40.773s133.62 66.822 183.44 118.921c49.82 52.098 88.32 115.522 115.49 190.272q40.77 108.73 40.77 248.036v1134.84h-271.76V1311.52c0-131.38-30.57-229.91-91.72-295.6-61.14-65.688-152.86-98.533-275.15-98.533-92.85 0-178.9 23.784-258.17 71.352-79.26 47.571-144.93 113.251-197.03 197.071-49.81 81.54-80.39 176.68-91.72 285.41l-3.39-197.07c11.33-95.14 33.97-181.21 67.94-258.23 36.23-77.015 80.4-142.704 132.48-197.068 54.35-56.629 115.5-99.666 183.44-129.113 70.2-29.448 143.81-44.171 220.8-44.171"></path>
        <path fill="#000000" d="M10807.6 2378.41h-271.8V679.546h271.8zm-254.7-791.67 3.3 95.14c-2.2 27.18-9 69.08-20.4 125.71-9 56.63-26 120.05-50.9 190.27-22.7 67.96-56.6 133.64-101.9 197.07-43.1 63.43-99.7 115.53-169.9 156.3-67.9 40.77-152.8 61.16-254.74 61.16-65.67 0-133.61-10.2-203.82-30.58q-101.91-27.18-190.23-91.74c-58.88-45.3-106.44-107.6-142.67-186.88-36.24-79.27-54.35-177.81-54.35-295.6V679.546h271.75V1739.64c0 101.93 15.86 182.35 47.56 241.24 33.97 56.63 79.26 97.4 135.88 122.31 56.62 24.92 120.02 37.38 190.22 37.38 115.5 0 211.7-29.45 288.8-88.34 77-58.89 135.8-131.38 176.6-217.46 40.8-86.07 65.7-168.75 74.8-248.03"></path>
        <path fill="#000000" d="M11166.7 1831.38h251.4c6.8 97.4 43 176.68 108.7 237.84 67.9 61.16 165.2 91.73 292.1 91.73 77 0 137.1-10.19 180-30.57 45.4-20.39 78.2-47.57 98.6-81.55 20.4-36.25 30.5-75.88 30.5-118.92 0-52.1-13.6-92.87-40.8-122.32-24.8-31.71-60-57.76-105.2-78.15-43.1-20.38-92.9-39.64-149.5-57.76-65.7-24.91-133.7-50.96-203.8-78.15-67.9-29.45-132.5-63.42-193.7-101.93-58.8-40.77-106.4-89.47-142.6-146.1-36.2-58.89-54.4-129.11-54.4-210.66 0-67.95 13.6-131.38 40.8-190.272 27.1-61.159 65.7-113.257 115.5-156.295 52.1-45.303 112.1-80.413 180.1-105.33 70.1-24.916 147.1-37.375 230.9-37.375 113.2 0 208.4 22.652 285.4 67.955q118.8 67.954 180 193.67c43 81.546 65.7 176.687 67.9 285.407h-234.3c-15.9-101.93-48.7-175.55-98.6-220.85-47.5-47.568-116.6-71.352-207.1-71.352-93 0-164.3 20.386-214.1 61.159s-74.7 95.133-74.7 163.093c0 49.83 18.1 91.74 54.3 125.71 36.3 31.71 82.7 61.16 139.3 88.34 58.9 24.92 121.2 50.97 186.8 78.15a7706 7706 0 0 1 190.2 81.55c61.2 27.18 115.5 58.89 163.1 95.13 47.6 36.25 85 81.55 112.2 135.91 29.3 52.1 44.1 117.79 44.1 197.07 0 95.14-22.6 180.08-68 254.83-42.9 72.48-107.5 129.11-193.6 169.89-83.8 40.77-186.8 61.16-309.1 61.16-110.9 0-206-13.59-285.4-40.78-76.9-29.45-141.5-66.82-193.5-112.12-52.2-47.57-93-97.41-122.3-149.5-27.2-52.1-45.4-103.06-54.4-152.9-9.1-49.84-11.4-91.74-6.8-125.71"></path>
        <path fill="#000000" d="M3305.11 2262.89c0-58.89 32.83-97.41 98.51-115.53 67.94-18.11 163.06-30.58 285.35-37.37l-163.06-37.38c-30-4.84-60.64-7.61-91.89-8.31q-62.79-1.41-128.91 8.31c-77 11.33-141.54 39.65-193.62 84.95-52.1 43.04-78.14 107.59-78.14 193.67 0 45.3 9.06 86.07 27.18 122.32 18.11 36.24 45.29 66.82 81.53 91.73 36.22 24.92 81.52 43.05 135.88 54.37 56.61 13.59 122.29 20.38 197.02 20.38h339.7c124.55 0 217.4 27.19 278.55 81.55 63.4 54.36 95.11 141.57 95.11 261.62v74.75h271.76v-142.7c0-135.91-29.44-243.51-88.32-322.78-58.89-77.02-137.02-132.52-234.39-166.49-97.38-31.71-204.96-47.57-322.71-47.57h-353.29c-52.09 0-91.72-10.19-118.89-30.58-24.92-22.66-37.37-50.97-37.37-84.94" clip-rule="evenodd" fill-rule="evenodd"></path>
        <path fill="#000000" d="M735.835 679.546H464.078V2378.41h271.757z" clip-rule="evenodd" fill-rule="evenodd"></path>
        <path fill="#000000" d="M8903.15 679.546H8631.4V2378.41h271.75z" clip-rule="evenodd" fill-rule="evenodd"></path>
        <path fill="#000000" d="M3756.3 2108.96c146.97 0 283.25-28.35 408.84-85.03 125.58-58.96 225.79-142.86 300.61-251.71 77.49-108.84 116.23-239.23 116.23-391.16 0-86.17-16.03-165.53-48.1-238.1-29.39-74.83-82.42-157.248-127.64-214.811-24.67-31.397-49.33-57.562-92.5-94.192-46.35-39.335-98.66-68.029-129.49-83.728l-98.66-47.096-80.78-26.165c8.28 3.361-5.17.188-26.56-4.855-27.94-6.594-69.46-16.384-93.69-18.954-40.07-6.803-82.83-10.205-128.26-10.205-146.96 0-283.24 30.613-408.83 91.838-125.59 58.958-227.12 143.994-304.61 255.106-77.5 108.842-116.24 239.232-116.24 391.162s38.74 282.32 116.24 391.16c80.15 108.85 183.03 192.75 308.62 251.71 34.2 15.11 68.86 28.2 104.01 39.3 96.67 30.48 196.95 45.73 300.81 45.73m0-255.11c88.19 0 169.68-18.14 244.5-54.41 77.49-36.29 140.29-89.58 188.39-159.87 48.09-70.3 72.14-156.47 72.14-258.51s-24.05-188.21-72.14-258.5c-45.44-72.57-106.88-126.993-184.38-163.274-77.49-38.55-160.32-57.824-248.51-57.824-88.17 0-171.01 19.274-248.5 57.824-77.49 36.281-140.29 89.564-188.38 159.864-48.1 70.29-72.15 157.6-72.15 261.91q0 153.06 72.15 258.51c48.09 70.29 110.89 123.58 188.38 159.87 77.49 36.27 160.33 54.41 248.5 54.41" clip-rule="evenodd" fill-rule="evenodd"></path>
        <path fill="#000000" d="M224.722 642.955c124.111 0 224.723-100.635 224.723-224.773 0-124.139-100.612-224.773-224.723-224.773C100.612 193.409 0 294.043 0 418.182s100.612 224.773 224.722 224.773"></path>
        <path stroke="#000000" fill="#000000" d="M438.992 595.909c-26.13-57.5-5.226-109.772-5.226-109.772L297.888 627.273s36.582-6.273 78.391 10.455c41.809 16.727 73.162 52.273 83.615 78.41s10.452 172.5 10.452 172.5L679.39 684.774s-156.783-5.227-177.688-15.682c-20.904-10.454-36.579-15.683-62.71-73.183Z"></path>
    </g>
</svg>